<svg xmlns="http://www.w3.org/2000/svg" viewBox="0 0 2291.95 752.56"><defs><style>.cls-1{fill:#fff;}.cls-2{fill:none;stroke:#fff;stroke-linejoin:round;stroke-width:18.42px;}</style></defs><title>logo</title><g id="Layer_2" data-name="Layer 2"><g id="Layer_1-2" data-name="Layer 1"><path class="cls-1" d="M1219.36,102.7h-88.71L957.26,573.14h86l39-113.58h185.49l39,113.58h86L1219.36,102.7ZM1175,189.4,1244.22,391H1105.78L1175,189.4Z"/><path class="cls-1" d="M1516.4,225h-76.61V702.85h76.61V552.31c22.18,18.15,51.75,28.9,87.37,28.9,90.73,0,158.6-71.24,158.6-182.13S1694.5,217,1603.77,217c-35.62,0-65.19,10.75-87.37,28.9V225Zm0,86.7c18.14-19.49,45.7-31.59,75.27-31.59,53.76,0,92.74,39,92.74,119s-39,119-92.74,119c-29.57,0-57.12-12.1-75.27-31.59V311.71Z"/><polygon class="cls-1" points="1836.3 573.14 1912.91 573.14 1912.91 82.54 1836.3 82.54 1836.3 573.14 1836.3 573.14"/><path class="cls-1" d="M2119.91,581.2c40.32,0,71.91-9.41,95.43-28.9v20.83H2292V348c0-97.45-45.7-131-147.85-131-47.72,0-98.12,12.1-128.36,30.24l7.39,64.52c34.27-19.49,75.27-31.59,117.61-31.59,53.76,0,74.6,12.77,74.6,53.09V350h-72.58c-100.14,0-155.92,45.7-155.92,118.28,0,75.27,59.81,112.9,133.07,112.9ZM2130.66,518c-40.32,0-65.86-15.46-65.86-51.08,0-34.27,22.18-55.11,80.65-55.11h69.89v74.6C2196.52,508,2166.28,518,2130.66,518Z"/><path class="cls-2" d="M766.7,478a203.49,203.49,0,0,0,0-203.49L672.26,111A203.49,203.49,0,0,0,496,9.21H307.14A203.49,203.49,0,0,0,130.92,111L36.47,274.54a203.49,203.49,0,0,0,0,203.49L130.92,641.6A203.49,203.49,0,0,0,307.14,743.35H496A203.49,203.49,0,0,0,672.26,641.6L766.7,478Zm-62.52-27.39a148.71,148.71,0,0,0,0-148.71l-86.9-150.51A148.71,148.71,0,0,0,488.48,77.05H314.69A148.71,148.71,0,0,0,185.9,151.41L99,301.92a148.71,148.71,0,0,0,0,148.71l86.9,150.51a148.71,148.71,0,0,0,128.79,74.36h173.8a148.71,148.71,0,0,0,128.79-74.36l86.9-150.51ZM640.83,425.9a99.24,99.24,0,0,0,0-99.24L564.18,193.9a99.24,99.24,0,0,0-85.94-49.62H324.93A99.24,99.24,0,0,0,239,193.9L162.34,326.66a99.24,99.24,0,0,0,0,99.24L239,558.66a99.24,99.24,0,0,0,85.94,49.62h153.3a99.24,99.24,0,0,0,85.94-49.62L640.83,425.9ZM568.29,425a97.5,97.5,0,0,0,0-97.5l-41.13-71.24a97.5,97.5,0,0,0-84.44-48.75H360.45A97.5,97.5,0,0,0,276,256.29l-41.13,71.24a97.5,97.5,0,0,0,0,97.5L276,496.27A97.5,97.5,0,0,0,360.45,545h82.26a97.5,97.5,0,0,0,84.44-48.75L568.29,425Zm-76.44.87a99.24,99.24,0,0,0,0-99.24l-2.16-3.74a99.24,99.24,0,0,0-85.94-49.62h-4.31a99.24,99.24,0,0,0-85.94,49.62l-2.16,3.74a99.24,99.24,0,0,0,0,99.24l2.16,3.74a99.24,99.24,0,0,0,85.94,49.62h4.31a99.24,99.24,0,0,0,85.94-49.62l2.16-3.74Z"/></g></g></svg>