<svg xmlns="http://www.w3.org/2000/svg" viewBox="0 0 572.02 167.54"><defs><style>.cls-1{fill:none;}.cls-2{fill:#fff;}</style></defs><title>logo</title><g id="Layer_2" data-name="Layer 2"><g id="Layer_1-2" data-name="Layer 1"><line class="cls-1" x1="261.1" y1="161.97" x2="261.1" y2="34.97"/><path class="cls-2" d="M341.1,35h-87V162h15V87h72c17.58,0,32-11.8,32-25.93v-.37c0-14.13-14.41-25.69-32-25.69M359.1,61c0,6.15-8.45,10.93-18,10.93h-72V49h72c9.54,0,18,5.54,18,11.69Z"/><path class="cls-2" d="M8.32,167.54,0,155.93,153.82,45.7,126.14,26.1l8.26-11.66,31.7,22.45L212.77,3.45A19.1,19.1,0,0,1,232.44,2.1,15.52,15.52,0,0,1,241.3,16v59a15.52,15.52,0,0,1-8.81,13.82,19.12,19.12,0,0,1-19.64-1.27l-46.7-33.07ZM178.44,45.63l42.67,30.22a4.84,4.84,0,0,0,4.82.24c.18-.09,1.09-.59,1.09-1.14V16c0-.56-1-1.08-1.1-1.14a4.84,4.84,0,0,0-4.83.25Z"/><path class="cls-2" d="M567.15,65.09,527.78,38.47a22.35,22.35,0,0,0-24,.07L460.05,68.66A13.93,13.93,0,0,1,452.38,71H406.12A10.87,10.87,0,0,1,395.41,60L395.18,35l-14.28.09L381.12,60a25,25,0,0,0,25,25h46.26a28.06,28.06,0,0,0,15.75-4.67l43.73-30c2-1.34,6-1.21,7.92.12L549.9,71H514.1V85h45.57c5.64,0,10.42-3.26,11.9-8.1a10.4,10.4,0,0,0-4.42-11.77"/></g></g></svg>